<svg xmlns="http://www.w3.org/2000/svg" viewBox="0 0 200 200" width="200" height="200">
  <defs>
    <linearGradient id="g-chas-hull" x1="1" y1="0" x2="0" y2="0">
    <stop offset="0" stop-color="#c4b5fd"/><stop offset="0.55" stop-color="#8b5cf6"/><stop offset="1" stop-color="#6d28d9"/>
  </linearGradient>
    <radialGradient id="g-chas-cab" cx="0.5" cy="0.35" r="0.7">
    <stop offset="0" stop-color="#ffffff"/><stop offset="0.5" stop-color="#a78bfa"/><stop offset="1" stop-color="#6d28d9"/>
  </radialGradient>
  </defs>
  <ellipse cx="105" cy="116" rx="88" ry="24" fill="rgba(0,0,0,0.28)"/>
  <path d="M 128 96 L 88 64 L 62 64 L 132 96 Z" fill="#8b5cf6" stroke="#0b1220" stroke-width="2" stroke-linejoin="round" opacity="0.95"/><circle cx="82" cy="60" r="3" fill="#ef4444" stroke="#0b1220" stroke-width="0.8"/><path d="M 128 104 L 88 136 L 62 136 L 132 104 Z" fill="#8b5cf6" stroke="#0b1220" stroke-width="2" stroke-linejoin="round" opacity="0.95"/><circle cx="82" cy="140" r="3" fill="#22c55e" stroke="#0b1220" stroke-width="0.8"/>
  <path d="M16.0 90.0 L55.0 86.0 L100.0 88.0 L150.0 92.0 L188.0 98.0 L188.0 102.0 L150.0 108.0 L100.0 112.0 L55.0 114.0 L16.0 110.0 Z" fill="url(#g-chas-hull)" stroke="#0b1220" stroke-width="2.5" stroke-linejoin="round"/>
  <path d="M 115 92 L 88 92" fill="none" stroke="#0b1220" stroke-width="1.5" opacity="0.35"/><path d="M 115 108 L 88 108" fill="none" stroke="#0b1220" stroke-width="1.5" opacity="0.35"/>
  <ellipse cx="152" cy="100" rx="8" ry="4" fill="url(#g-chas-cab)" stroke="#0b1220" stroke-width="2"/>
  <rect x="8" y="92" width="12" height="16" rx="2.5" fill="#0f172a" stroke="#0b1220" stroke-width="1.5"/>
     <rect x="10" y="94" width="8" height="12" rx="1.5" fill="#a78bfa" opacity="0.85"/>
    <rect x="28" y="95" width="8" height="10" rx="2.5" fill="#0f172a" stroke="#0b1220" stroke-width="1.5"/>
     <rect x="30" y="97" width="4" height="6" rx="1.5" fill="#a78bfa" opacity="0.85"/>
</svg>
