<svg xmlns="http://www.w3.org/2000/svg" viewBox="0 0 200 200" width="200" height="200">
  <defs>
    <linearGradient id="g-barbican-hull" x1="1" y1="0" x2="0" y2="0">
    <stop offset="0" stop-color="#fde68a"/><stop offset="0.55" stop-color="#f59e0b"/><stop offset="1" stop-color="#b45309"/>
  </linearGradient>
    <radialGradient id="g-barbican-cab" cx="0.5" cy="0.35" r="0.7">
    <stop offset="0" stop-color="#ffffff"/><stop offset="0.5" stop-color="#fbbf24"/><stop offset="1" stop-color="#b45309"/>
  </radialGradient>
  </defs>
  <ellipse cx="105" cy="116" rx="92" ry="26" fill="rgba(0,0,0,0.28)"/>
  <path d="M 118 94 L 44 42 L 34 42 L 122 94 Z" fill="#f59e0b" stroke="#0b1220" stroke-width="2" stroke-linejoin="round" opacity="0.95"/><circle cx="42" cy="40" r="3" fill="#ef4444" stroke="#0b1220" stroke-width="0.8"/><path d="M 118 106 L 44 158 L 34 158 L 122 106 Z" fill="#f59e0b" stroke="#0b1220" stroke-width="2" stroke-linejoin="round" opacity="0.95"/><circle cx="42" cy="160" r="3" fill="#22c55e" stroke="#0b1220" stroke-width="0.8"/>
  <path d="M14.0 88.0 L60.0 84.0 L110.0 85.0 L158.0 90.0 L192.0 97.0 L192.0 103.0 L158.0 110.0 L110.0 115.0 L60.0 116.0 L14.0 112.0 Z" fill="url(#g-barbican-hull)" stroke="#0b1220" stroke-width="2.5" stroke-linejoin="round"/>
  <path d="M 124 92 L 160 92" fill="none" stroke="#0b1220" stroke-width="1.5" opacity="0.35"/><path d="M 124 108 L 160 108" fill="none" stroke="#0b1220" stroke-width="1.5" opacity="0.35"/>
  <ellipse cx="156" cy="100" rx="9" ry="4" fill="url(#g-barbican-cab)" stroke="#0b1220" stroke-width="2"/>
  <rect x="6" y="93" width="10" height="14" rx="2.5" fill="#0f172a" stroke="#0b1220" stroke-width="1.5"/>
     <rect x="8" y="95" width="6" height="10" rx="1.5" fill="#fbbf24" opacity="0.85"/>
    <rect x="24" y="93" width="10" height="14" rx="2.5" fill="#0f172a" stroke="#0b1220" stroke-width="1.5"/>
     <rect x="26" y="95" width="6" height="10" rx="1.5" fill="#fbbf24" opacity="0.85"/>
    <rect x="42" y="95" width="8" height="10" rx="2.5" fill="#0f172a" stroke="#0b1220" stroke-width="1.5"/>
     <rect x="44" y="97" width="4" height="6" rx="1.5" fill="#fbbf24" opacity="0.85"/>
</svg>
