<svg xmlns="http://www.w3.org/2000/svg" viewBox="0 0 200 200" width="200" height="200">
  <defs>
    <linearGradient id="g-zmei-hull" x1="1" y1="0" x2="0" y2="0">
    <stop offset="0" stop-color="#bbf7d0"/><stop offset="0.55" stop-color="#22c55e"/><stop offset="1" stop-color="#15803d"/>
  </linearGradient>
    <radialGradient id="g-zmei-cab" cx="0.5" cy="0.35" r="0.7">
    <stop offset="0" stop-color="#ffffff"/><stop offset="0.5" stop-color="#4ade80"/><stop offset="1" stop-color="#15803d"/>
  </radialGradient>
  </defs>
  <ellipse cx="105" cy="116" rx="92" ry="25" fill="rgba(0,0,0,0.28)"/>
  <path d="M 140 96 L 105 75 L 92 75 L 150 96 Z" fill="#22c55e" stroke="#0b1220" stroke-width="2" stroke-linejoin="round" opacity="0.95"/><circle cx="100" cy="72" r="3" fill="#ef4444" stroke="#0b1220" stroke-width="0.8"/><path d="M 140 104 L 105 125 L 92 125 L 150 104 Z" fill="#22c55e" stroke="#0b1220" stroke-width="2" stroke-linejoin="round" opacity="0.95"/><circle cx="100" cy="128" r="3" fill="#22c55e" stroke="#0b1220" stroke-width="0.8"/>
  <path d="M10.0 91.0 L55.0 87.0 L105.0 88.0 L155.0 90.0 L195.0 96.0 L195.0 104.0 L155.0 110.0 L105.0 112.0 L55.0 113.0 L10.0 109.0 Z" fill="url(#g-zmei-hull)" stroke="#0b1220" stroke-width="2.5" stroke-linejoin="round"/>
  <path d="M 130 92 L 175 93" fill="none" stroke="#0b1220" stroke-width="1.5" opacity="0.35"/><path d="M 130 108 L 175 107" fill="none" stroke="#0b1220" stroke-width="1.5" opacity="0.35"/>
  <ellipse cx="175" cy="100" rx="6" ry="3.5" fill="url(#g-zmei-cab)" stroke="#0b1220" stroke-width="2"/>
  <rect x="4" y="94" width="10" height="12" rx="2.5" fill="#0f172a" stroke="#0b1220" stroke-width="1.5"/>
     <rect x="6" y="96" width="6" height="8" rx="1.5" fill="#4ade80" opacity="0.85"/>
    <rect x="22" y="94" width="10" height="12" rx="2.5" fill="#0f172a" stroke="#0b1220" stroke-width="1.5"/>
     <rect x="24" y="96" width="6" height="8" rx="1.5" fill="#4ade80" opacity="0.85"/>
</svg>
